<?xml version="1.0" encoding="UTF-8"?>
<!DOCTYPE svg PUBLIC "-//W3C//DTD SVG 1.1//EN" "http://www.w3.org/Graphics/SVG/1.1/DTD/svg11.dtd">
<!-- Creator: CorelDRAW 2018 (64-Bit) -->
<svg xmlns="http://www.w3.org/2000/svg" xml:space="preserve" width="0.833331in" height="0.833331in" version="1.1" style="shape-rendering:geometricPrecision; text-rendering:geometricPrecision; image-rendering:optimizeQuality; fill-rule:evenodd; clip-rule:evenodd"
viewBox="0 0 833.33 833.33"
 xmlns:xlink="http://www.w3.org/1999/xlink">
 <defs>
  <style type="text/css">
   <![CDATA[
    .fil0 {fill-rule:nonzero}
   ]]>
  </style>
 </defs>
 <g id="Layer_x0020_1">
  <metadata id="CorelCorpID_0Corel-Layer"/>
  <g id="_2276030602768">
   <path class="fil0" d="M416.13 613.98c-89.53,0 -162.1,-72.58 -162.1,-162.13 0,-89.54 72.57,-162.11 162.1,-162.11 89.54,0 162.13,72.57 162.13,162.11 0,89.54 -72.59,162.13 -162.13,162.13zm0 -455.73c34.36,0 63.46,20.73 76.46,50.25l-152.91 0c13.01,-29.52 42.1,-50.25 76.44,-50.25zm242.01 50.25l-106.46 0c-15.15,-60.97 -69.87,-106.23 -135.55,-106.23 -65.66,0 -120.37,45.26 -135.52,106.23l-106.47 0c-39.15,0 -70.89,31.74 -70.89,70.89l0 344.93c0,39.16 31.73,70.89 70.89,70.89l484 0c39.15,0 70.9,-31.74 70.9,-70.89l0 -344.93c0,-39.16 -31.75,-70.89 -70.9,-70.89z"/>
   <polygon class="fil0" points="445.33,375.67 386.96,375.67 386.96,422.69 339.94,422.69 339.94,481.04 386.96,481.04 386.96,528.06 445.33,528.06 445.33,481.04 492.33,481.04 492.33,422.69 445.33,422.69 "/>
  </g>
 </g>
</svg>
