<?xml version="1.0" encoding="UTF-8"?>
<!DOCTYPE svg PUBLIC "-//W3C//DTD SVG 1.1//EN" "http://www.w3.org/Graphics/SVG/1.1/DTD/svg11.dtd">
<!-- Creator: CorelDRAW 2018 (64-Bit) -->
<svg xmlns="http://www.w3.org/2000/svg" xml:space="preserve" width="0.833331in" height="0.833331in" version="1.1" style="shape-rendering:geometricPrecision; text-rendering:geometricPrecision; image-rendering:optimizeQuality; fill-rule:evenodd; clip-rule:evenodd"
viewBox="0 0 833.33 833.33"
 xmlns:xlink="http://www.w3.org/1999/xlink">
 <defs>
  <style type="text/css">
   <![CDATA[
    .fil0 {fill-rule:nonzero}
   ]]>
  </style>
 </defs>
 <g id="Layer_x0020_1">
  <metadata id="CorelCorpID_0Corel-Layer"/>
  <g id="_2428792396128">
   <polygon class="fil0" points="232.16,647.08 299.7,647.08 299.7,393.64 375.8,393.64 375.8,647.08 457.53,647.08 457.53,393.64 533.65,393.64 533.65,647.08 601.19,647.08 601.19,327.26 651.46,327.26 424.3,207.06 181.87,327.26 232.16,327.26 "/>
   <path class="fil0" d="M436.08 178.84c15.96,-1.39 32.14,0.54 47.43,5.66 21.24,7.09 42.41,20.43 64.18,15.66 1.38,-0.29 2.8,-0.72 3.86,-1.75 1.69,-1.7 1.88,-4.48 1.93,-6.99 0.53,-21.82 0.2,-43.66 -0.97,-65.44 -8.87,7.84 -21.34,9.11 -32.56,6.85 -11.22,-2.26 -21.68,-7.61 -32.4,-11.84 -22.17,-8.75 -47.51,-12.61 -68.8,-1.57l-2.08 0.04c0.54,22.72 1.07,45.44 1.61,68.17 3.44,-6.39 11.04,-8.19 17.79,-8.78z"/>
   <polygon class="fil0" points="181.87,720.7 651.46,720.7 651.46,672.46 181.87,672.46 "/>
  </g>
 </g>
</svg>
